<?xml version="1.0" encoding="utf-8"?>
<!-- Svg Vector Icons : http://www.onlinewebfonts.com/icon -->
<!DOCTYPE svg PUBLIC "-//W3C//DTD SVG 1.1//EN" "http://www.w3.org/Graphics/SVG/1.1/DTD/svg11.dtd">
<svg version="1.1" xmlns="http://www.w3.org/2000/svg" xmlns:xlink="http://www.w3.org/1999/xlink" x="0px" y="0px" viewBox="0 0 256 256" enable-background="new 0 0 256 256" xml:space="preserve">
<metadata> Svg Vector Icons : http://www.onlinewebfonts.com/icon </metadata>
<g><g><path fill="#000000" d="M233.5,115.4l-180.8-0.1l83.2-83.9c2.4-2.4,3.7-5.5,3.7-8.9c0-3.4-1.3-6.5-3.7-8.9c-4.7-4.8-13-4.8-17.7,0L13.6,119c-4.9,4.9-4.9,12.9,0,17.8l104.5,105.5c2.4,2.4,5.5,3.7,8.8,3.7c3.3,0,6.5-1.3,8.8-3.7c4.9-4.9,4.9-12.9-0.1-17.9l-83.1-83.8l180.8,0.1c6.9,0,12.5-5.7,12.5-12.6C246,121,240.4,115.4,233.5,115.4z"/></g></g>
</svg>